<svg xmlns="http://www.w3.org/2000/svg" xmlns:xlink="http://www.w3.org/1999/xlink" version="1.1" x="0px" y="0px" viewBox="0 0 95 95" enable-background="new 0 0 95 95" xml:space="preserve"><g><g><g><path d="M45.766,37.778c-5.457,0-9.881,4.426-9.881,9.882c0,5.459,4.424,9.884,9.881,9.884c5.459,0,9.883-4.425,9.883-9.884     C55.648,42.204,51.225,37.778,45.766,37.778z M43.098,51.708v-8.096l8.52,4.047L43.098,51.708z"></path></g><g><path d="M45.766,61.844c-7.82,0-14.182-6.361-14.182-14.185c0-7.818,6.361-14.182,14.182-14.182     c7.818,0,14.184,6.363,14.184,14.182C59.949,55.483,53.584,61.844,45.766,61.844z M45.766,36.456     c-6.178,0-11.205,5.028-11.205,11.204c0,6.181,5.027,11.207,11.205,11.207S56.971,53.84,56.971,47.66     C56.971,41.484,51.943,36.456,45.766,36.456z"></path></g></g><path d="M82.148,14.61H12.852c-2.244,0-4.063,1.819-4.063,4.059v57.66c0,2.242,1.818,4.062,4.063,4.062h69.297   c2.244,0,4.063-1.819,4.063-4.062v-57.66C86.211,16.429,84.393,14.61,82.148,14.61z M57.414,19.822c0-1.124,0.91-2.031,2.031-2.031   h5.143c1.121,0,2.031,0.907,2.031,2.031v5.141c0,1.123-0.91,2.031-2.031,2.031h-5.143c-1.121,0-2.031-0.908-2.031-2.031V19.822z    M42.898,19.822c0-1.124,0.91-2.031,2.029-2.031h5.145c1.121,0,2.031,0.907,2.031,2.031v5.141c0,1.123-0.91,2.031-2.031,2.031   h-5.145c-1.119,0-2.029-0.908-2.029-2.031V19.822z M28.383,19.822c0-1.124,0.908-2.031,2.031-2.031h5.143   c1.121,0,2.031,0.907,2.031,2.031v5.141c0,1.123-0.91,2.031-2.031,2.031h-5.143c-1.123,0-2.031-0.908-2.031-2.031V19.822z    M13.865,19.822c0-1.124,0.91-2.031,2.031-2.031h5.145c1.121,0,2.029,0.907,2.029,2.031v5.141c0,1.123-0.908,2.031-2.029,2.031   h-5.145c-1.121,0-2.031-0.908-2.031-2.031V19.822z M13.865,30.135h67.27v34.65h-67.27V30.135z M23.07,75.177   c0,1.121-0.908,2.03-2.029,2.03h-5.145c-1.121,0-2.031-0.909-2.031-2.03v-5.143c0-1.122,0.91-2.03,2.031-2.03h5.145   c1.121,0,2.029,0.908,2.029,2.03V75.177z M37.588,75.177c0,1.121-0.91,2.03-2.031,2.03h-5.143c-1.123,0-2.031-0.909-2.031-2.03   v-5.143c0-1.122,0.908-2.03,2.031-2.03h5.143c1.121,0,2.031,0.908,2.031,2.03V75.177z M52.104,75.177c0,1.121-0.91,2.03-2.031,2.03   h-5.145c-1.119,0-2.029-0.909-2.029-2.03v-5.143c0-1.122,0.91-2.03,2.029-2.03h5.145c1.121,0,2.031,0.908,2.031,2.03V75.177z    M66.619,75.177c0,1.121-0.91,2.03-2.031,2.03h-5.143c-1.121,0-2.031-0.909-2.031-2.03v-5.143c0-1.122,0.91-2.03,2.031-2.03h5.143   c1.121,0,2.031,0.908,2.031,2.03V75.177z M81.135,75.177c0,1.121-0.91,2.03-2.031,2.03h-5.141c-1.123,0-2.031-0.909-2.031-2.03   v-5.143c0-1.122,0.908-2.03,2.031-2.03h5.141c1.121,0,2.031,0.908,2.031,2.03V75.177z M81.135,24.962   c0,1.123-0.91,2.031-2.031,2.031h-5.141c-1.123,0-2.031-0.908-2.031-2.031v-5.141c0-1.124,0.908-2.031,2.031-2.031h5.141   c1.121,0,2.031,0.907,2.031,2.031V24.962z"></path></g></svg>