<svg xmlns="http://www.w3.org/2000/svg" xmlns:xlink="http://www.w3.org/1999/xlink" version="1.1" x="0px" y="0px" viewBox="0 0 75 75" enable-background="new 0 0 75 75" xml:space="preserve"><path d="M26.755,40.782c-0.129,0.329-0.083,0.517-0.083,0.517l0.169,2.441c-0.084,3.34-1.546,4.432-1.546,4.432l2.068,13.305  c-2.352-0.847-4.557-1.982-6.574-3.356l-0.86-9.6c0,0-0.462-0.233-1.381-0.656c-0.917-0.422-1.878-1.608-2.123-2.014  c-0.24-0.407-0.808-1.545-2.189-2.587c-1.378-1.043-1.511-0.545-1.875-1.178c-0.366-0.631,0.551-1.029,0.551-1.029  s2.548-0.497,4.701,2.189c0,0,0.065-0.017,0.181-0.033l0.03-0.102c-0.026,0.003-0.041,0.003-0.041,0.003  c0.014-0.002,0.027-0.003,0.042-0.004l0.129-0.435c0,0,0.005-0.068,0.012-0.176c0.688-0.014,3.184,0.096,4.237,2.329  c0.066,0.106,0.133,0.214,0.198,0.329c0,0-0.198-3.129-4.434-2.666c0.021-0.337,0.059-1.051,0.019-1.391  c-0.054-0.452-0.25-0.887-0.25-0.887l-2.182-5.145c0,0-0.416-0.867,0.356-1.273c0.771-0.406,1.192,0.293,1.192,0.293  s2.312,4.621,2.573,5.193c0.261,0.571,0.609-0.167,0.609-0.167l-0.833-6.175c0,0-0.24-1.009,0.843-1.235  c1.083-0.224,1.178,1.381,1.178,1.381s0.729,5.316,0.827,5.933c0.099,0.616,0.437,0.021,0.437,0.021s0.815-5.113,0.894-5.654  c0.082-0.542,0.25-1.141,1.05-1.115c0.8,0.025,0.69,1.75,0.69,1.75s-0.611,5.189-0.638,5.578c-0.026,0.39,0.229,0.287,0.229,0.287  s1.937-3.994,2.095-4.278c0.16-0.286,0.471-0.903,1.257-0.585c0.785,0.316,0.005,2.051,0.005,2.051S26.886,40.455,26.755,40.782z   M62.189,38.072c-0.664-0.455-1.08,0.055-1.285,0.284c-0.205,0.231-2.815,3.544-2.815,3.544s-0.257,0.042-0.153-0.312  c0.104-0.356,1.729-5.043,1.729-5.043s0.452-1.58-0.283-1.768s-1.014,0.335-1.202,0.82c-0.181,0.484-1.98,5.062-1.98,5.062  s-0.438,0.484-0.4-0.105c0.034-0.592,0.441-5.674,0.441-5.674s0.24-1.508-0.811-1.521c-1.053-0.011-1.031,0.974-1.031,0.974  L53.91,40.23c0,0-0.475,0.615-0.6,0.032c-0.125-0.585-1.328-5.343-1.328-5.343s-0.246-0.736-1.045-0.516  c-0.799,0.219-0.59,1.108-0.59,1.108l0.975,5.217c0,0,0.094,0.442,0.052,0.873c-0.031,0.316-0.204,0.945-0.295,1.262  c3.879,0.485,3.438,3.358,3.438,3.358c-0.037-0.121-0.078-0.236-0.119-0.349c-0.49-2.147-2.548-2.815-3.324-2.993  c-0.03,0.106-0.051,0.175-0.051,0.175l-0.209,0.377c-0.015-0.002-0.026-0.003-0.043-0.005c0,0,0.017,0.002,0.043,0.006l-0.049,0.089  c-0.111-0.008-0.176-0.007-0.176-0.007c-1.449-2.932-3.913-2.99-3.913-2.99s-0.934,0.184-0.724,0.843  c0.209,0.663,0.436,0.229,1.502,1.476c1.068,1.248,1.363,2.42,1.504,2.846c0.143,0.426,0.792,1.725,1.559,2.301  c0.765,0.579,1.146,0.891,1.146,0.891l-1.475,11.54c2.2-1.034,4.241-2.331,6.086-3.845l0.433-6.925c0,0,1.579-0.713,2.338-3.795  l0.34-2.298c0,0-0.004-0.184,0.185-0.462c0.187-0.279,2.205-3.122,2.205-3.122S62.854,38.525,62.189,38.072z M51.367,19.826  c-1.208-0.662-1.832,0.273-2.145,0.702c-0.312,0.428-4.209,6.508-4.209,6.508s-0.43,0.117-0.312-0.506  c0.116-0.625,2.104-8.887,2.104-8.887s0.506-2.766-0.779-2.962c-1.285-0.194-1.676,0.741-1.909,1.599  c-0.234,0.857-2.533,8.963-2.533,8.963s-0.663,0.897-0.701-0.117s-0.194-9.743-0.194-9.743s0.156-2.612-1.638-2.456  c-1.793,0.156-1.598,1.833-1.598,1.833l0.155,10.132c0,0-0.702,1.129-1.014,0.156c-0.311-0.975-3.156-8.886-3.156-8.886  s-0.546-1.209-1.871-0.702c-1.325,0.507-0.819,1.988-0.819,1.988l2.534,8.73c0,0,0.233,0.741,0.233,1.48  c0,0.741-0.351,2.534-0.351,2.534l-0.035,0.081c6.907,0.081,6.622,5.158,6.622,5.158c-0.082-0.195-0.165-0.377-0.252-0.559  c-1.257-3.792-5.23-4.468-6.376-4.585l-0.251,0.582c-0.024,0-0.046-0.001-0.07-0.001c0,0,0.024,0.001,0.069,0.004l-0.069,0.159  c-0.19,0.006-0.299,0.02-0.299,0.02c-2.96-4.756-7.17-4.444-7.17-4.444s-1.559,0.468-1.088,1.559  c0.468,1.091,0.779,0.313,2.806,2.26c2.026,1.949,2.728,3.898,3.04,4.599c0.312,0.703,1.637,2.807,3.04,3.663  c1.401,0.858,2.104,1.326,2.104,1.326l-0.672,23.079c0.966,0.094,1.946,0.143,2.938,0.143c2.5,0,4.927-0.306,7.241-0.879  l-0.778-21.875c0,0,2.573-1.48,3.352-6.859l0.194-3.976c0,0-0.038-0.312,0.232-0.819c0.274-0.505,3.235-5.689,3.235-5.689  S52.574,20.489,51.367,19.826z"></path></svg>