<svg xmlns="http://www.w3.org/2000/svg" xmlns:xlink="http://www.w3.org/1999/xlink" version="1.1" x="0px" y="0px" viewBox="0 0 100 100" style="enable-background:new 0 0 100 100;" xml:space="preserve"><path d="M31.7,50c-1.6-5.2-7.4-12.6,0-13.3c0.2,0,0.3,0.1,0.2,0c-0.1-1.1-0.4-3.5-0.5-4.8c0-0.4-0.1-0.7-0.5-1.1  c-0.5-0.5-2.1-0.6-2.6-0.3c-0.4,0.2-0.5,0.4-0.7,1.1c-0.2,0.6-0.1,1.3-0.1,1.9c0,3.7,0,7.4,0,11.1c0,1.9,0,3.9,0,5.9  c0,0.6-0.2,1.1-0.8,1.1l-0.3,0.1c-0.6,0.1-1.3-0.4-1.4-1c-0.7-4.9-1.4-9.8-2.1-14.7c-0.2-1.3-1.3-2.1-2.2-1.8  c-1.6,0.1-1.6,1.3-1.8,2.2c-0.2,0.8,0.1,1.9,0.3,2.9c0.8,6.3,1.6,12.5,2.3,18.8c0.1,1.4,0.3,2.7-1.3,2.7c-0.9,0-2.1-0.8-2.7-1.7  c-1.2-1.8-2.1-4-3-5.9c-0.6-1.3-2.4-2.6-3.6-1.6c-1.1,0.9-1.1,2.2-0.6,3.5c2.2,5.2,4.2,10.6,6.5,15.9c0.8,1.8,1.9,3.4,3.2,4.8  c1.6,1.8,2.5,3.8,2.5,6.2c0,3.3,0.1,6.7-0.1,10.1c-0.1,1.3,0.4,2.1,1.8,2.2c1.1,0.1,2.3,0.3,3.4,0.4c1.8,0.1,6.4,0.1,8.9-0.4  c0.7-0.1,1.3-0.2,2.1-0.4c1.4-0.4,1.9-0.9,1.8-2.3c0-5-0.1-7.6,0.1-12.5c0-0.3-0.2-5.3-0.1-11.1c-0.2-5.6-4.6-5-6.6-13.1  C33.5,53.5,32.3,52,31.7,50z M60.6,78.9c0,3.2,2.4,3.1,2.4,4c0.1,4.9,0.1,3.6,0.1,8.5c-0.1,1.4,0.4,2,1.8,2.3  c0.7,0.1,1.3,0.2,2.1,0.4c2.5,0.5,7.1,0.5,8.9,0.4c1.1-0.1,2.3-0.2,3.4-0.4c1.4-0.1,1.8-0.8,1.8-2.2C81,88.6,81,89.2,81,85.8  c0-2.4,0.8-4.4,2.5-6.2c1.3-1.4,2.4-3,3.2-4.8c2.3-5.2,4.3-10.6,6.5-15.9c0.6-1.3,0.5-2.5-0.6-3.5c-1.2-1-3,0.4-3.6,1.6  c-1,2-1.8,4.1-3,5.9c-0.6,0.8-1.8,1.7-2.7,1.7c-1.6,0-1.4-1.3-1.3-2.7c0.8-6.3,1.6-12.5,2.3-18.8c0.1-1,0.5-2.1,0.3-2.9  c-0.2-0.9-0.2-2.1-1.8-2.2c-0.9-0.2-2,0.6-2.2,1.8c-0.7,4.9-1.4,9.8-2.1,14.7c-0.1,0.6-0.8,1.1-1.4,1l-0.3-0.1  c-0.6,0.1-0.8-0.4-0.8-1c0-2,0-4,0-5.9c0-3.8,0-7.4,0-11.1c0-0.6,0.1-1.3-0.1-1.9c-0.2-0.7-0.4-0.9-0.7-1.1  c-0.6-0.4-2.1-0.2-2.6,0.3c-0.4,0.4-0.5,0.7-0.5,1.1C72,39.2,72,42.7,72,46.1c0,2.5-0.1,5.2,0,7.7c0,1.1,0.1,1.5-0.8,1.6  c-0.6,0.1-1.2-0.5-1.3-1.1c-0.4-5-0.8-10-1.1-15c-0.1-1.5-0.4-2.8-2.1-2.8c-1.8,0-2,1.3-1.9,2.8c0.3,5.2,0.6,10.4,0.9,15.7  c0,0.1,0,0.1,0,0.1c0,0.8-1,0.9-1.2,1.5c-0.2,0.4,0,2.8-3.6,8.6C60.8,67,60.6,74.5,60.6,78.9z M65.2,28c-0.1-0.7-1-1.6-1.7-1.7  c-0.6-0.1-1.5,0.6-1.9,1.1c-0.4,0.6-0.4,1.4-0.6,2.2c-0.5,2.7-1,5.5-1.5,8.1C59.2,39.2,57,39,57,37.4c0,0,0,0,0-0.1  c0.4-5.2,0.6-10.4,0.9-15.7c0.1-1.5-0.1-2.8-1.9-2.8s-2,1.3-2.1,2.8c-0.4,5-0.8,10-1.1,15c-0.1,0.6-0.6,1.2-1.3,1.1  c-0.8-0.1-0.8-0.5-0.8-1.6c0.1-2.5,0-5.2,0-7.7c0-3.4,0.1-6.9-0.1-10.3c0-0.4-0.1-0.7-0.5-1.1c-0.5-0.5-2.1-0.6-2.6-0.3  c-0.4,0.2-0.5,0.4-0.7,1.1c-0.2,0.6-0.1,1.3-0.1,1.9c0,3.7,0,7.4,0,11.1c0,1.9,0,3.9,0,5.9c0,0.6-0.2,1.1-0.8,1.1l-0.3,0.1  c-0.6,0.1-1.3-0.4-1.4-1c-0.7-4.9-1.4-9.8-2.1-14.7c-0.2-1.3-1.3-2.1-2.2-1.8c-1.6,0.1-1.6,1.3-1.8,2.2c-0.2,0.8,0.1,1.9,0.3,2.9  c0.8,6.3,1.6,12.5,2.3,18.8c0.1,1.4,0.3,2.7-1.3,2.7c-0.9,0-2.1-0.8-2.7-1.7c-1.2-1.8-2.1-4-3-5.9C33,38.3,31.2,37,30,38  c-1.1,0.9-1.1,2.2-0.6,3.5c1.3,3.2,2.6,6.4,3.9,9.6c0.8,2.1,1.7,4.2,2.6,6.2c0.8,1.8,1.9,3.4,3.2,4.8c1.6,1.8,2.5,3.8,2.5,6.2  c0,3.3,0.1,20.7-0.1,24.1c-0.1,1.3,0.4,2.1,1.8,2.2c1.1,0.1,2.3,0.3,3.4,0.4c1.8,0.1,6.4,0.1,8.9-0.4c0.7-0.1,1.3-0.2,2.1-0.4  c1.4-0.4,1.9-0.9,1.8-2.3c0-5-0.1-21.6,0.1-26.5c0.1-1.5,4.4-6.4,3.8-14c-0.3-7.2,0.2-13.2,1.3-20.1C65,30.2,65.4,29,65.2,28z   M37.6,44.5c0.2-3.3,0.4-6,0.6-9.3c0.1-1.5-0.1-2.8-1.9-2.8s-2,1.3-2.1,2.8c-0.1,1.2,0,0.9-0.1,2.1"></path></svg>